<svg width="157" height="53" viewBox="0 0 157 53" fill="none" xmlns="http://www.w3.org/2000/svg">
<path d="M82.1962 28.984C82.1242 25.456 83.4442 22.372 86.1562 19.732C88.8922 17.068 92.0602 15.772 95.6602 15.844C97.7482 15.844 99.6322 16.324 101.312 17.284C102.992 18.22 104.348 19.564 105.38 21.316L102.464 23.476C100.856 20.716 98.5162 19.336 95.4442 19.336C92.8282 19.336 90.6202 20.26 88.8202 22.108C87.0442 23.956 86.1562 26.2 86.1562 28.84C86.1562 31.216 86.8882 33.16 88.3522 34.672C89.8162 36.184 91.7362 36.94 94.1122 36.94C96.8002 36.94 99.0922 35.92 100.988 33.88L101.528 30.82H94.2202L94.8322 27.436H105.956L104.66 34.852C103.484 36.58 101.924 37.936 99.9802 38.92C98.0362 39.904 95.9602 40.396 93.7522 40.396C90.4882 40.444 87.7282 39.364 85.4722 37.156C83.2402 34.924 82.1482 32.2 82.1962 28.984Z" fill="#070A13"/>
<path d="M108.549 31.612C108.501 28.996 109.473 26.716 111.465 24.772C113.457 22.828 115.773 21.88 118.413 21.928C120.957 21.928 123.081 22.78 124.785 24.484C126.513 26.164 127.377 28.252 127.377 30.748C127.425 33.364 126.441 35.644 124.425 37.588C122.433 39.508 120.093 40.444 117.405 40.396C114.885 40.396 112.773 39.556 111.069 37.876C109.389 36.196 108.549 34.108 108.549 31.612ZM123.489 30.784C123.489 29.248 122.997 27.964 122.013 26.932C121.053 25.9 119.805 25.384 118.269 25.384C116.661 25.384 115.281 25.996 114.129 27.22C113.001 28.42 112.437 29.872 112.437 31.576C112.437 33.16 112.905 34.456 113.841 35.464C114.801 36.448 116.037 36.94 117.549 36.94C119.205 36.94 120.609 36.352 121.761 35.176C122.913 33.976 123.489 32.512 123.489 30.784Z" fill="#070A13"/>
<path d="M147.587 27.796C147.587 28.108 147.515 28.768 147.371 29.776L145.571 40H141.755L143.555 29.812C143.675 29.212 143.735 28.768 143.735 28.48C143.735 27.496 143.423 26.716 142.799 26.14C142.199 25.564 141.371 25.276 140.315 25.276C139.163 25.276 138.179 25.612 137.363 26.284C136.547 26.956 136.043 27.868 135.851 29.02L133.907 40H130.127L134.843 13H138.623L136.787 23.656C138.131 22.504 139.715 21.928 141.539 21.928C143.339 21.928 144.791 22.468 145.895 23.548C147.023 24.628 147.587 26.044 147.587 27.796Z" fill="#070A13"/>
<path d="M150.726 37.624C150.726 36.808 150.99 36.136 151.518 35.608C152.07 35.08 152.742 34.816 153.534 34.816C154.326 34.816 154.986 35.08 155.514 35.608C156.042 36.136 156.306 36.808 156.306 37.624C156.306 38.416 156.042 39.076 155.514 39.604C154.986 40.132 154.326 40.396 153.534 40.396C152.742 40.396 152.07 40.132 151.518 39.604C150.99 39.076 150.726 38.416 150.726 37.624Z" fill="#070A13"/>
<g clip-path="url(#clip0_1168_6684)">
<path d="M63.5495 16.0981L63.5495 16.0981L63.545 16.096C63.5022 16.0766 63.4587 16.0567 63.4147 16.0366C63.2659 15.9686 63.1109 15.8977 62.9527 15.8331C62.1307 15.483 61.2611 16.1168 61.2611 16.9946C61.2611 17.498 61.5578 17.9546 62.013 18.1531L62.5471 18.3914C64.6098 19.352 66.4261 20.6076 67.9648 22.131L67.9652 22.1314C68.4654 22.6255 69.2742 22.5937 69.7403 22.0429L69.7405 22.043L69.7485 22.0329C70.165 21.5073 70.0833 20.7444 69.6307 20.2981C67.8946 18.5816 65.8551 17.1759 63.5495 16.0981Z" fill="#ED4747" stroke="#ED4747" stroke-width="0.8"/>
<path d="M36.4529 19.9001C36.6008 20.0417 36.6868 20.3113 36.7571 20.6573C36.7825 20.807 36.8039 20.945 36.8109 21.0697L36.8495 21.7519L37.4255 21.3843C38.5855 20.6438 39.752 19.984 40.9335 19.4129L40.9335 19.4129L40.936 19.4117C43.5638 18.1187 46.2556 17.232 48.9268 16.7671L48.9292 16.7666C49.6043 16.645 50.0302 15.9825 49.9199 15.3191C49.8086 14.6497 49.1832 14.1756 48.507 14.2963C45.6199 14.8017 42.7105 15.7578 39.8821 17.1445L39.8821 17.1445L39.8809 17.1451C38.6799 17.7387 37.4883 18.404 36.306 19.1407L35.5953 19.5835L36.3864 19.858C36.4021 19.8635 36.4246 19.8754 36.4529 19.9001Z" fill="#ED4747" stroke="#ED4747" stroke-width="0.8"/>
<path d="M26.704 31.3997C26.482 31.2472 26.4365 30.9086 26.6349 30.6915C28.1589 29.043 29.6211 27.583 31.0813 26.2661L31.0823 26.2652C33.009 24.5157 34.9079 23.0332 36.8216 21.7636C36.9334 21.6919 37.0429 21.6204 37.1507 21.55L37.1511 21.5497C37.2604 21.4784 37.368 21.4081 37.4774 21.338L37.5595 21.2854L37.6082 21.2009C37.784 20.8959 37.8442 20.5392 37.7737 20.1933C37.7019 19.8229 37.4879 19.5014 37.1804 19.2915C36.9965 19.1643 36.7887 19.0886 36.5721 19.0636L36.427 19.0468L36.3053 19.1275C36.2647 19.1543 36.2234 19.1798 36.1755 19.2093L36.173 19.2108C36.1283 19.2383 36.0775 19.2695 36.0259 19.3037C33.8334 20.7057 31.6615 22.3841 29.4672 24.3729C27.7276 25.9424 25.9983 27.6924 24.1726 29.7169C23.5657 29.3422 22.9531 28.9871 22.3348 28.6459L22.3319 28.6443C19.9288 27.3438 17.4134 26.4629 15.069 26.1078L15.0687 26.1077C12.2849 25.6885 9.71 25.978 7.41684 26.9827L7.41683 26.9827L7.41328 26.9843C5.58183 27.808 4.05288 29.1443 3.10096 30.7804L3.10071 30.7808C2.00029 32.6776 1.79 34.7566 2.48673 36.7913L2.48673 36.7913L2.48704 36.7922C3.3642 39.334 5.70137 41.3834 8.45011 42.0452L8.45019 42.0452C10.6991 42.5862 13.247 42.2463 15.608 41.1275C19.1288 39.459 21.5898 36.5484 23.9024 33.8134L23.9151 33.7983C23.9156 33.7978 23.9161 33.7972 23.9165 33.7967C23.9951 33.7057 24.0712 33.6151 24.1454 33.527C24.2205 33.4376 24.2935 33.3507 24.3684 33.2641L24.37 33.2623C24.5135 33.0942 24.7395 33.0671 24.91 33.182C25.804 33.7937 26.6902 34.4235 27.562 35.0463L27.8909 35.2813L28.1224 34.9499C28.2093 34.8254 28.2976 34.6624 28.3384 34.4716C28.4135 34.1652 28.4234 33.8596 28.4167 33.5794C28.4135 33.4459 28.4063 33.3128 28.3995 33.1872L28.3984 33.1653C28.3911 33.0309 28.3846 32.9051 28.3826 32.7823L28.3793 32.5812L28.2159 32.4639C27.7182 32.1065 27.2114 31.7489 26.7042 31.3999L26.704 31.3997ZM14.5908 38.8371L14.59 38.8375C12.6816 39.7406 10.7049 39.9962 9.00374 39.5933C7.03637 39.123 5.38377 37.6798 4.79144 35.9532L4.79112 35.9523C3.80986 33.1147 5.77704 30.449 8.3803 29.2997L8.38095 29.2995C9.31912 28.8833 10.7778 28.4435 12.7172 28.4435C14.9196 28.4435 17.7619 29.0116 21.1886 30.8696C21.3323 30.9488 21.474 31.028 21.617 31.108L21.6175 31.1083C21.7575 31.1866 21.8988 31.2657 22.0423 31.3448C22.276 31.4923 22.3347 31.829 22.1587 32.0511C22.1387 32.0719 22.1036 32.1092 22.0717 32.1535C19.7482 34.9027 17.6147 37.414 14.5908 38.8371Z" fill="#40B06A" stroke="#40B06A" stroke-width="0.8"/>
<path d="M26.6478 34.3969C26.9727 34.6283 27.2952 34.858 27.6089 35.0875L38.8528 40.8641C39.7422 41.2024 40.6487 41.514 41.5638 41.7811L41.4502 42.1647C41.4505 42.1648 41.4508 42.1648 41.451 42.1649C42.4582 42.4631 43.4731 42.6979 44.487 42.8783L44.8877 42.9496L44.952 42.5477C44.982 42.3607 44.9911 42.1702 44.9912 41.9902C44.997 41.7186 44.995 41.4384 44.9931 41.1663C44.9922 41.0333 44.9913 40.9023 44.9913 40.7751V40.4366L44.6574 40.3806C38.9586 39.4254 33.7764 36.4412 29.02 33.0337L29.02 33.0337L29.0183 33.0325C28.6173 32.7483 28.2085 32.4557 27.8086 32.1634L27.2428 32.7126C27.2854 32.7748 27.3177 32.8607 27.3288 32.965L27.3287 32.965L27.3298 32.9734C27.3514 33.1422 27.3069 33.3117 27.2114 33.4372C27.1053 33.5768 26.9739 33.6549 26.8266 33.6746L25.8231 33.8094L26.6478 34.3969Z" fill="#FFBE3A" stroke="#FFBE3A" stroke-width="0.8"/>
<path d="M59.9708 24.3343L59.9698 24.3337C57.7554 22.9079 54.9908 22.4406 52.724 23.1486L52.7228 23.149C51.6105 23.5002 50.6184 24.1568 49.9239 25.0148L49.9237 25.0151C49.0854 26.0527 48.743 27.2979 48.9594 28.582C49.3392 30.8578 51.354 32.8266 53.6101 33.3311C54.3798 33.5069 55.086 32.8982 55.0989 32.1293C55.1108 31.5522 54.7289 31.0219 54.1582 30.8868L54.1583 30.8868L54.1536 30.8858C53.4991 30.7392 52.8496 30.368 52.3371 29.8671C51.8235 29.3652 51.4721 28.7576 51.3736 28.1575L51.3736 28.1575L51.3732 28.1555C51.2317 27.3206 51.7404 26.0781 53.4326 25.5504L53.4332 25.5503C54.9772 25.0664 57.0437 25.4063 58.6714 26.4654L58.6725 26.4661C60.4845 27.6367 61.5841 29.5068 61.6885 31.5811L61.6886 31.582C61.8013 33.7284 60.8853 35.7623 59.1491 37.19C56.0246 39.7417 51.8529 40.959 47.069 40.6702L47.0682 40.6701C46.0193 40.609 44.9856 40.4691 43.9668 40.2675L42.8691 40.0503L43.5804 40.9142C43.6309 40.9755 43.6622 41.0145 43.6865 41.0533C43.7641 41.2039 43.7846 41.3753 43.7485 41.5356C43.7043 41.7036 43.6055 41.8319 43.4751 41.9073L43.4608 41.9156L43.4496 41.9234L42.1109 42.3879L43.5054 42.6891C45.1374 43.0415 46.7969 43.2407 48.4494 43.2678L48.4506 43.2679C51.1245 43.3041 53.804 42.8597 56.3814 41.8047L56.3815 41.8046C60.5138 40.111 64.399 36.5955 64.1295 31.4422C63.9772 28.5328 62.4529 25.9423 59.9708 24.3343Z" fill="#7ED3F6" stroke="#7ED3F6" stroke-width="0.8"/>
<path d="M13.6168 16.797L13.3672 16.8116C13.596 20.724 16.4919 23.9885 20.2857 24.4874C20.3987 24.5053 20.518 24.5148 20.6197 24.5229C20.6278 24.5235 20.6358 24.5242 20.6437 24.5248L20.6437 24.5248L20.6464 24.525C20.9263 24.5444 21.1446 24.3242 21.1446 24.053V22.7888C21.1446 22.5564 20.9737 22.3425 20.7271 22.3178C20.6907 22.3128 20.6559 22.3102 20.6296 22.3082L20.6266 22.308C20.5952 22.3057 20.5744 22.304 20.5551 22.3011L20.5551 22.3011L20.5506 22.3005C17.8137 21.9433 15.7007 19.6019 15.5001 16.7601C15.4948 16.5049 15.2935 16.3066 15.0449 16.3066H13.8306C13.5444 16.3066 13.3504 16.5492 13.3673 16.813L13.6168 16.797ZM13.6168 16.797C13.8391 20.5986 16.6527 23.7592 20.3216 24.24L15.2502 16.7703C15.2502 16.6457 15.1561 16.5566 15.0449 16.5566H13.8306C13.7023 16.5566 13.6082 16.6635 13.6168 16.797Z" fill="#FFBE3A" stroke="#FFBE3A" stroke-width="0.5"/>
<path d="M26.7165 11.0865L26.7168 11.0869C27.5212 12.0097 28.0313 13.1735 28.1793 14.3981L28.1792 14.3981L28.1802 14.4046C28.2133 14.6284 28.392 14.8139 28.6413 14.8139H29.8557C30.1372 14.8139 30.3513 14.5644 30.318 14.2867C30.1414 12.5554 29.4459 10.9138 28.3083 9.61C27.0376 8.14942 25.3064 7.21068 23.4231 6.96215L23.4231 6.9619L23.412 6.96094C23.3669 6.95703 23.3209 6.95108 23.2687 6.94429L23.2664 6.94399C23.2166 6.9375 23.1608 6.93024 23.1041 6.92533L23.1041 6.92529L23.0998 6.92499C22.8198 6.90556 22.6016 7.12579 22.6016 7.39697V8.6612C22.6016 8.88667 22.7653 9.10433 23.0063 9.13167C23.0379 9.13676 23.066 9.13942 23.0865 9.14135L23.0888 9.14157C23.1133 9.14388 23.1276 9.14534 23.1424 9.14791L23.1423 9.14807L23.1513 9.1493C24.5274 9.33689 25.7895 10.019 26.7165 11.0865Z" fill="#ED4747" stroke="#ED4747" stroke-width="0.5"/>
<path d="M17.3891 10.6124L17.3895 10.6121C18.3095 9.80532 19.4694 9.29388 20.6898 9.14542L20.6899 9.14551L20.6964 9.14453C20.9209 9.11115 21.1049 8.93125 21.1049 8.68279V7.46469C21.1049 7.18447 20.8573 6.96809 20.5783 7.0018C18.8517 7.17893 17.2149 7.87676 15.915 9.01794C14.4588 10.2925 13.5232 12.0288 13.2755 13.9173L13.2752 13.9173L13.2743 13.9283C13.2704 13.9736 13.2645 14.0198 13.2577 14.0721L13.2574 14.0744C13.2509 14.1244 13.2437 14.1803 13.2388 14.2371L13.2388 14.2371L13.2385 14.2414C13.2192 14.5202 13.4374 14.7402 13.7098 14.7402H14.9702C15.1966 14.7402 15.4129 14.575 15.44 14.3347C15.445 14.3031 15.4477 14.2749 15.4496 14.2543L15.4498 14.252C15.4521 14.2275 15.4536 14.2131 15.4562 14.1982L15.4563 14.1982L15.4575 14.1893C15.6446 12.8084 16.3249 11.5422 17.3891 10.6124Z" fill="#40B06A" stroke="#40B06A" stroke-width="0.5"/>
<path d="M28.1797 17.0524L28.1799 17.0524C28.1942 16.9634 28.2019 16.866 28.2101 16.7631L28.1797 17.0524ZM28.1797 17.0524L28.1786 17.062M28.1797 17.0524L28.1786 17.062M28.1786 17.062C27.8414 19.862 25.6638 22.0274 23.0237 22.3095C22.7611 22.3326 22.6094 22.5613 22.6094 22.781V24.0452C22.6094 24.3286 22.8483 24.5358 23.1161 24.5172L23.1161 24.5172M28.1786 17.062L23.1161 24.5172M23.1161 24.5172L23.1204 24.5169M23.1161 24.5172L23.1204 24.5169M23.1204 24.5169C24.8185 24.3695 26.4355 23.6516 27.7158 22.4569C29.1549 21.1331 30.0707 19.3062 30.3085 17.3265L30.3085 17.3265M23.1204 24.5169L30.3085 17.3265M30.3085 17.3265L30.309 17.3218L30.3085 17.3265ZM28.4248 16.2988H28.6748H29.8892C30.1597 16.2988 30.3689 16.5336 30.3526 16.8035C30.3526 16.8041 30.3525 16.8046 30.3525 16.8052L28.4248 16.2988ZM28.4248 16.2988V16.3819M28.4248 16.2988V16.3819M28.4248 16.3819C28.3048 16.4601 28.2233 16.5927 28.2118 16.7426L28.4248 16.3819Z" fill="#7ED3F6" stroke="#7ED3F6" stroke-width="0.5"/>
<path d="M56.0327 15.1426C56.8344 15.1426 57.4843 14.4907 57.4843 13.6865C57.4843 12.8824 56.8344 12.2305 56.0327 12.2305C55.231 12.2305 54.5811 12.8824 54.5811 13.6865C54.5811 14.4907 55.231 15.1426 56.0327 15.1426Z" fill="#7ED3F6"/>
<path d="M50.5166 18.0218L51.0297 17.0958C53.0993 18.3334 55.1347 18.547 57.076 17.7458C58.5299 17.1404 59.3766 16.1788 59.3851 16.1699L60.1462 16.8911C60.1035 16.9356 59.1285 18.0485 57.4609 18.7429C55.913 19.375 53.45 19.7757 50.5166 18.0218Z" fill="#7ED3F6"/>
<path d="M58.936 17.4726C59.7377 17.4726 60.3876 16.8207 60.3876 16.0166C60.3876 15.2124 59.7377 14.5605 58.936 14.5605C58.1343 14.5605 57.4844 15.2124 57.4844 16.0166C57.4844 16.8207 58.1343 17.4726 58.936 17.4726Z" fill="#7ED3F6"/>
<path d="M51.0654 14.7859L50.5693 13.8511L52.0488 12.9875L51.1509 11.6877L51.9804 11.0645L53.5626 13.3347L51.0654 14.7859Z" fill="#7ED3F6"/>
</g>
<defs>
<clipPath id="clip0_1168_6684">
<rect width="72" height="53" fill="white"/>
</clipPath>
</defs>
</svg>
