<svg width="70" height="38" viewBox="0 0 70 38" fill="none" xmlns="http://www.w3.org/2000/svg">
<path d="M62.5495 10.0981L62.5495 10.0981L62.545 10.096C62.5022 10.0766 62.4587 10.0567 62.4147 10.0366C62.2659 9.96857 62.1109 9.89766 61.9527 9.83313C61.1307 9.48301 60.2611 10.1168 60.2611 10.9946C60.2611 11.498 60.5578 11.9546 61.013 12.1531L61.5471 12.3914C63.6098 13.352 65.4261 14.6076 66.9648 16.131L66.9652 16.1314C67.4654 16.6255 68.2742 16.5937 68.7403 16.0429L68.7405 16.043L68.7485 16.0329C69.165 15.5073 69.0833 14.7444 68.6307 14.2981C66.8946 12.5816 64.8551 11.1759 62.5495 10.0981Z" fill="#ED4747" stroke="#ED4747" stroke-width="0.8"/>
<path d="M35.4529 13.9001C35.6008 14.0417 35.6868 14.3113 35.7571 14.6573C35.7825 14.807 35.8039 14.945 35.8109 15.0697L35.8495 15.7519L36.4255 15.3843C37.5855 14.6438 38.752 13.984 39.9335 13.4129L39.9335 13.4129L39.936 13.4117C42.5638 12.1187 45.2556 11.232 47.9268 10.7671L47.9292 10.7666C48.6043 10.645 49.0302 9.98248 48.9199 9.31914C48.8086 8.64975 48.1832 8.17559 47.507 8.29629C44.6199 8.80174 41.7105 9.75779 38.8821 11.1445L38.8821 11.1445L38.8809 11.1451C37.6799 11.7387 36.4883 12.404 35.306 13.1407L34.5953 13.5835L35.3864 13.858C35.4021 13.8635 35.4246 13.8754 35.4529 13.9001Z" fill="#ED4747" stroke="#ED4747" stroke-width="0.8"/>
<path d="M25.704 25.3997C25.482 25.2472 25.4365 24.9086 25.6349 24.6915C27.1589 23.043 28.6211 21.583 30.0813 20.2661L30.0823 20.2652C32.009 18.5157 33.9079 17.0332 35.8216 15.7636C35.9334 15.6919 36.0429 15.6204 36.1507 15.55L36.1511 15.5497C36.2604 15.4784 36.368 15.4081 36.4774 15.338L36.5595 15.2854L36.6082 15.2009C36.784 14.8959 36.8442 14.5392 36.7737 14.1933C36.7019 13.8229 36.4879 13.5014 36.1804 13.2915C35.9965 13.1643 35.7887 13.0886 35.5721 13.0636L35.427 13.0468L35.3053 13.1275C35.2647 13.1543 35.2234 13.1798 35.1755 13.2093L35.173 13.2108C35.1283 13.2383 35.0775 13.2695 35.0259 13.3037C32.8334 14.7057 30.6615 16.3841 28.4672 18.3729C26.7276 19.9424 24.9983 21.6924 23.1726 23.7169C22.5657 23.3422 21.9531 22.9871 21.3348 22.6459L21.3319 22.6443C18.9288 21.3438 16.4134 20.4629 14.069 20.1078L14.0687 20.1077C11.2849 19.6885 8.71 19.978 6.41684 20.9827L6.41683 20.9827L6.41328 20.9843C4.58183 21.808 3.05288 23.1443 2.10096 24.7804L2.10071 24.7808C1.00029 26.6776 0.789995 28.7566 1.48673 30.7913L1.48673 30.7913L1.48704 30.7922C2.3642 33.334 4.70137 35.3834 7.45011 36.0452L7.45019 36.0452C9.69914 36.5862 12.247 36.2463 14.608 35.1275C18.1288 33.459 20.5898 30.5484 22.9024 27.8134L22.9151 27.7983C22.9156 27.7978 22.9161 27.7972 22.9165 27.7967C22.9951 27.7057 23.0712 27.6151 23.1454 27.527C23.2205 27.4376 23.2935 27.3507 23.3684 27.2641L23.37 27.2623C23.5135 27.0942 23.7395 27.0671 23.91 27.182C24.804 27.7937 25.6902 28.4235 26.562 29.0463L26.8909 29.2813L27.1224 28.9499C27.2093 28.8254 27.2976 28.6624 27.3384 28.4716C27.4135 28.1652 27.4234 27.8596 27.4167 27.5794C27.4135 27.4459 27.4063 27.3128 27.3995 27.1872L27.3984 27.1653C27.3911 27.0309 27.3846 26.9051 27.3826 26.7823L27.3793 26.5812L27.2159 26.4639C26.7182 26.1065 26.2114 25.7489 25.7042 25.3999L25.704 25.3997ZM13.5908 32.8371L13.59 32.8375C11.6816 33.7406 9.70494 33.9962 8.00374 33.5933C6.03637 33.123 4.38377 31.6798 3.79144 29.9532L3.79112 29.9523C2.80986 27.1147 4.77704 24.449 7.3803 23.2997L7.38095 23.2995C8.31912 22.8833 9.77781 22.4435 11.7172 22.4435C13.9196 22.4435 16.7619 23.0116 20.1886 24.8696C20.3323 24.9488 20.474 25.028 20.617 25.108L20.6175 25.1083C20.7575 25.1866 20.8988 25.2657 21.0423 25.3448C21.276 25.4923 21.3347 25.829 21.1587 26.0511C21.1387 26.0719 21.1036 26.1092 21.0717 26.1535C18.7482 28.9027 16.6147 31.414 13.5908 32.8371Z" fill="#40B06A" stroke="#40B06A" stroke-width="0.8"/>
<path d="M25.6478 28.3969C25.9727 28.6283 26.2952 28.858 26.6089 29.0875L37.8528 34.8641C38.7422 35.2024 39.6487 35.514 40.5638 35.7811L40.4502 36.1647C40.4505 36.1648 40.4508 36.1648 40.451 36.1649C41.4582 36.4631 42.4731 36.6979 43.487 36.8783L43.8877 36.9496L43.952 36.5477C43.982 36.3607 43.9911 36.1702 43.9912 35.9902C43.997 35.7186 43.995 35.4384 43.9931 35.1663C43.9922 35.0333 43.9913 34.9023 43.9913 34.7751V34.4366L43.6574 34.3806C37.9586 33.4254 32.7764 30.4412 28.02 27.0337L28.02 27.0337L28.0183 27.0325C27.6173 26.7483 27.2085 26.4557 26.8086 26.1634L26.2428 26.7126C26.2854 26.7748 26.3177 26.8607 26.3288 26.965L26.3287 26.965L26.3298 26.9734C26.3514 27.1422 26.3069 27.3117 26.2114 27.4372C26.1053 27.5768 25.9739 27.6549 25.8266 27.6746L24.8231 27.8094L25.6478 28.3969Z" fill="#FFBE3A" stroke="#FFBE3A" stroke-width="0.8"/>
<path d="M58.9708 18.3343L58.9698 18.3337C56.7554 16.9079 53.9908 16.4406 51.724 17.1486L51.7228 17.149C50.6105 17.5002 49.6184 18.1568 48.9239 19.0148L48.9237 19.0151C48.0854 20.0527 47.743 21.2979 47.9594 22.582C48.3392 24.8578 50.354 26.8266 52.6101 27.3311C53.3798 27.5069 54.086 26.8982 54.0989 26.1293C54.1108 25.5522 53.7289 25.0219 53.1582 24.8868L53.1583 24.8868L53.1536 24.8858C52.4991 24.7392 51.8496 24.368 51.3371 23.8671C50.8235 23.3652 50.4721 22.7576 50.3736 22.1575L50.3736 22.1575L50.3732 22.1555C50.2317 21.3206 50.7404 20.0781 52.4326 19.5504L52.4332 19.5503C53.9772 19.0664 56.0437 19.4063 57.6714 20.4654L57.6725 20.4661C59.4845 21.6367 60.5841 23.5068 60.6885 25.5811L60.6886 25.582C60.8013 27.7284 59.8853 29.7623 58.1491 31.19C55.0246 33.7417 50.8529 34.959 46.069 34.6702L46.0682 34.6701C45.0193 34.609 43.9856 34.4691 42.9668 34.2675L41.8691 34.0503L42.5804 34.9142C42.6309 34.9755 42.6622 35.0145 42.6865 35.0533C42.7641 35.2039 42.7846 35.3753 42.7485 35.5356C42.7043 35.7036 42.6055 35.8319 42.4751 35.9073L42.4608 35.9156L42.4496 35.9234L41.1109 36.3879L42.5054 36.6891C44.1374 37.0415 45.7969 37.2407 47.4494 37.2678L47.4506 37.2679C50.1245 37.3041 52.804 36.8597 55.3814 35.8047L55.3815 35.8046C59.5138 34.111 63.399 30.5955 63.1295 25.4422C62.9772 22.5328 61.4529 19.9423 58.9708 18.3343Z" fill="#7ED3F6" stroke="#7ED3F6" stroke-width="0.8"/>
<path d="M12.6168 10.797L12.3672 10.8116C12.596 14.724 15.4919 17.9885 19.2857 18.4874C19.3987 18.5053 19.518 18.5148 19.6197 18.5229C19.6278 18.5235 19.6358 18.5242 19.6437 18.5248L19.6437 18.5248L19.6464 18.525C19.9263 18.5444 20.1446 18.3242 20.1446 18.053V16.7888C20.1446 16.5564 19.9737 16.3425 19.7271 16.3178C19.6907 16.3128 19.6559 16.3102 19.6296 16.3082L19.6266 16.308C19.5952 16.3057 19.5744 16.304 19.5551 16.3011L19.5551 16.3011L19.5506 16.3005C16.8137 15.9433 14.7007 13.6019 14.5001 10.7601C14.4948 10.5049 14.2935 10.3066 14.0449 10.3066H12.8306C12.5444 10.3066 12.3504 10.5492 12.3673 10.813L12.6168 10.797ZM12.6168 10.797C12.8391 14.5986 15.6527 17.7592 19.3216 18.24L14.2502 10.7703C14.2502 10.6457 14.1561 10.5566 14.0449 10.5566H12.8306C12.7023 10.5566 12.6082 10.6635 12.6168 10.797Z" fill="#FFBE3A" stroke="#FFBE3A" stroke-width="0.5"/>
<path d="M25.7165 5.0865L25.7168 5.08685C26.5212 6.00972 27.0313 7.17347 27.1793 8.39809L27.1792 8.3981L27.1802 8.40463C27.2133 8.62842 27.392 8.81394 27.6413 8.81394H28.8557C29.1372 8.81394 29.3513 8.56441 29.318 8.28669C29.1414 6.55537 28.4459 4.91382 27.3083 3.61C26.0376 2.14942 24.3064 1.21068 22.4231 0.96215L22.4231 0.961903L22.412 0.960937C22.3669 0.957026 22.3209 0.951081 22.2687 0.944286L22.2664 0.943989C22.2166 0.937504 22.1608 0.930243 22.1041 0.925325L22.1041 0.925288L22.0998 0.92499C21.8198 0.90556 21.6016 1.12579 21.6016 1.39697V2.6612C21.6016 2.88667 21.7653 3.10433 22.0063 3.13167C22.0379 3.13676 22.066 3.13942 22.0865 3.14135L22.0888 3.14157C22.1133 3.14388 22.1276 3.14534 22.1424 3.14791L22.1423 3.14807L22.1513 3.1493C23.5274 3.33689 24.7895 4.01902 25.7165 5.0865Z" fill="#ED4747" stroke="#ED4747" stroke-width="0.5"/>
<path d="M16.3891 4.61243L16.3895 4.61213C17.3095 3.80532 18.4694 3.29388 19.6898 3.14542L19.6899 3.14551L19.6964 3.14453C19.9209 3.11115 20.1049 2.93125 20.1049 2.68279V1.46469C20.1049 1.18447 19.8573 0.968093 19.5783 1.0018C17.8517 1.17893 16.2149 1.87676 14.915 3.01794C13.4588 4.29251 12.5232 6.0288 12.2755 7.9173L12.2752 7.91726L12.2743 7.92833C12.2704 7.9736 12.2645 8.01978 12.2577 8.07215L12.2574 8.07442C12.2509 8.12442 12.2437 8.18034 12.2388 8.23715L12.2388 8.23714L12.2385 8.24142C12.2192 8.52016 12.4374 8.74023 12.7098 8.74023H13.9702C14.1966 8.74023 14.4129 8.57503 14.44 8.33469C14.445 8.30311 14.4477 8.2749 14.4496 8.25433L14.4498 8.25201C14.4521 8.22752 14.4536 8.21308 14.4562 8.19817L14.4563 8.1982L14.4575 8.18925C14.6446 6.80837 15.3249 5.54219 16.3891 4.61243Z" fill="#40B06A" stroke="#40B06A" stroke-width="0.5"/>
<path d="M27.1797 11.0524L27.1799 11.0524C27.1942 10.9634 27.2019 10.866 27.2101 10.7631L27.1797 11.0524ZM27.1797 11.0524L27.1786 11.062M27.1797 11.0524L27.1786 11.062M27.1786 11.062C26.8414 13.862 24.6638 16.0274 22.0237 16.3095C21.7611 16.3326 21.6094 16.5613 21.6094 16.781V18.0452C21.6094 18.3286 21.8483 18.5358 22.1161 18.5172L22.1161 18.5172M27.1786 11.062L22.1161 18.5172M22.1161 18.5172L22.1204 18.5169M22.1161 18.5172L22.1204 18.5169M22.1204 18.5169C23.8185 18.3695 25.4355 17.6516 26.7158 16.4569C28.1549 15.1331 29.0707 13.3062 29.3085 11.3265L29.3085 11.3265M22.1204 18.5169L29.3085 11.3265M29.3085 11.3265L29.309 11.3218L29.3085 11.3265ZM27.4248 10.2988H27.6748H28.8892C29.1597 10.2988 29.3689 10.5336 29.3526 10.8035C29.3526 10.8041 29.3525 10.8046 29.3525 10.8052L27.4248 10.2988ZM27.4248 10.2988V10.3819M27.4248 10.2988V10.3819M27.4248 10.3819C27.3048 10.4601 27.2233 10.5927 27.2118 10.7426L27.4248 10.3819Z" fill="#7ED3F6" stroke="#7ED3F6" stroke-width="0.5"/>
<path d="M55.0327 9.14256C55.8344 9.14256 56.4843 8.49066 56.4843 7.68651C56.4843 6.88236 55.8344 6.23047 55.0327 6.23047C54.231 6.23047 53.5811 6.88236 53.5811 7.68651C53.5811 8.49066 54.231 9.14256 55.0327 9.14256Z" fill="#7ED3F6"/>
<path d="M49.5166 12.0218L50.0297 11.0958C52.0993 12.3334 54.1347 12.547 56.076 11.7458C57.5299 11.1404 58.3766 10.1788 58.3851 10.1699L59.1462 10.8911C59.1035 10.9356 58.1285 12.0485 56.4609 12.7429C54.913 13.375 52.45 13.7757 49.5166 12.0218Z" fill="#7ED3F6"/>
<path d="M57.936 11.4726C58.7377 11.4726 59.3876 10.8207 59.3876 10.0166C59.3876 9.21244 58.7377 8.56055 57.936 8.56055C57.1343 8.56055 56.4844 9.21244 56.4844 10.0166C56.4844 10.8207 57.1343 11.4726 57.936 11.4726Z" fill="#7ED3F6"/>
<path d="M50.0654 8.78594L49.5693 7.85112L51.0488 6.98752L50.1509 5.68767L50.9804 5.06445L52.5626 7.33474L50.0654 8.78594Z" fill="#7ED3F6"/>
</svg>
